/* XPM */
static char *chest_01__1_1676805598[] = {
/* columns rows colors chars-per-pixel */
"40 40 123 2 ",
"   c None",
".  c #170500",
"X  c #1A0A06",
"o  c #170E0E",
"O  c #1D0E0B",
"+  c #1F100D",
"@  c #0E0D16",
"#  c #0C0E19",
"$  c #100E15",
"%  c #190F11",
"&  c #0E111C",
"*  c #191012",
"=  c #18141B",
"-  c #22120E",
";  c #29160F",
":  c #231410",
">  c #2C1A12",
",  c #231A1C",
"<  c #2C1F1D",
"1  c #321D14",
"2  c #2A201E",
"3  c #362116",
"4  c #392317",
"5  c #3A2519",
"6  c #3C291F",
"7  c #1D2337",
"8  c #2E2323",
"9  c #322523",
"0  c #392B26",
"q  c #3B2D28",
"w  c #252532",
"e  c #2B2C39",
"r  c #302E38",
"t  c #41291C",
"y  c #482F1F",
"u  c #442F22",
"i  c #4E3423",
"p  c #46352F",
"a  c #4E382B",
"s  c #503523",
"d  c #553A27",
"f  c #513A2C",
"g  c #5C3E29",
"h  c #443530",
"j  c #423837",
"k  c #4A3930",
"l  c #4E3F3A",
"z  c #533E33",
"x  c #5E412C",
"c  c #4B413F",
"v  c #584237",
"b  c #54423A",
"n  c #5F4A3D",
"m  c #68482F",
"M  c #644631",
"N  c #644936",
"B  c #6B4B33",
"V  c #634A38",
"C  c #6A4E3C",
"Z  c #6E523E",
"A  c #71523C",
"S  c #293046",
"D  c #353746",
"F  c #3A3947",
"G  c #31374A",
"H  c #34394C",
"J  c #353D54",
"K  c #4D4445",
"L  c #534542",
"P  c #574845",
"I  c #5B4943",
"U  c #594B48",
"Y  c #5F514A",
"T  c #454352",
"R  c #4C4955",
"E  c #4E4C59",
"W  c #55525D",
"Q  c #5B545C",
"!  c #5D585A",
"~  c #6B5240",
"^  c #715541",
"/  c #765B46",
"(  c #615555",
")  c #645D5F",
"_  c #6E5D58",
"`  c #44516E",
"'  c #4C5268",
"]  c #5D5760",
"[  c #4A5674",
"{  c #535C76",
"}  c #6D6465",
"|  c #6C676A",
" . c #766760",
".. c #766861",
"X. c #626274",
"o. c #62657A",
"O. c #737175",
"+. c #7D7472",
"@. c #867971",
"#. c #8D817A",
"$. c #5E6987",
"%. c #596788",
"&. c #5F6B8C",
"*. c #626982",
"=. c #626D8A",
"-. c #6A748F",
";. c #647295",
":. c #6D7690",
">. c #67779D",
",. c #69799E",
"<. c #6B7BA1",
"1. c #7382A4",
"2. c #888587",
"3. c #848489",
"4. c #888689",
"5. c #91939A",
"6. c #8C94A6",
"7. c #9C9DA1",
"8. c #97A5BE",
"9. c #A0A4AE",
"0. c #A4A7B0",
"q. c #A7AEB7",
"w. c #AFB9C7",
/* pixels */
"                                                                                ",
"                                                                                ",
"                                                                                ",
"                                                                                ",
"                                                                                ",
"                                                                                ",
"                                                                                ",
"                  . . . X O O O O X O X O o O X O O O X . . .                   ",
"                : : : : - - - - - - - - - : - - - + - - : : : :                 ",
"              j K K K K p 6 5 5 5 5 5 5 5 5 5 5 5 5 6 h K K K K j               ",
"            9 ( 3.5.5.4...V g g x x g x x x x x g g V ..4.5.5.3.! 8             ",
"          - 0 ) 5.q.q.7.@.^ m m B B B B B V B M B M ^ @.7.q.q.5.) 0 ;           ",
"        1 t a U | O.O.| Y f i i i i i i i i i i i i f ( | O.O.| U f t >         ",
"      - 4 g M f 0 9 8 6 2 > ; > ; > > > > > > > ; ; > 3 9 9 9 0 f M g 5 -       ",
"      - 5 M m i ; X X X O O - O O O % O O O O O O O O O O X X ; i B x 5 -       ",
"      - 5 v B i ; X + O - O O - + + + + - O - O - - O - O X X ; i B x 5 -       ",
"      : 1 x B i ; O - - - - - - - - - + - + - - + - - - O - X > i B x 5 -       ",
"      : t x B i ; X X X X O O O O O + O + O O O O O O O X X . ; i B x 5 -       ",
"      : 5 x B s > - - - : - - - - - : + - - - - - - - - : : - > a B x 5 -       ",
"      : 1 d B I L K K c h 6 4 4 5 5 5 5 5 5 5 5 1 t 0 p c K L L V M d 3 -       ",
"      : 1 u M  .3.5.5.2.@.M d g g g g M g x x g g g V  .3.5.5.2...V y 1 -       ",
"      - ; t z @.9.w.w.0.@.^ B ^ ^ A C B B C ~ ~ A C / #.0.w.w.9.+.v 5 > -       ",
"      - ; 1 k | 6.w.8.6.@.~ C _  .Q L l l L (  ._ ~ ~ +.6.w.8.6.| k 3 ; -       ",
"      - : ; h W =.<.<.:.) z I X.*.' D e e D ' *.X.I z ( -.<.<.-.W q > ; -       ",
"    * - - > 0 E =.>.>.$.Q f L o.%.` S 7 7 S ` &.X.P z Q =.>.>.*.E 0 > - + +     ",
"    % O ; > 0 E *.,.>.=.Q z P o.&.` S 7 7 S ` &.X.P z Q =.>.>.*.E 0 > ; + +     ",
"  $ * - ; > 0 E =.,.,.=.Q z P o.&.[ J S S J [ &.X.P z Q =.>.<.=.E q > ; * * #   ",
"  $ % : ; 1 q E =.,.,.=.Q z P o.>.%.[ ` ` [ %.;.o.P z Q =.>.<.=.E 0 > ; - * $   ",
"  $ * * ; > 0 E =.,.,.=.Q z P X.;.;.=.&.=.=.;.;.X.P z Q =.<.<.*.E q > ; : % $   ",
"  $ * + - > 0 E =.,.,.=.Q z z ] { *.o.o.*.o.o.X.Q l z Q =.<.<.=.E q > ; O % &   ",
"  $ + + ; > q E =.,.,.=.] z f l P U U U U U U P l f z Q =.>.<.$.E 0 > ; : % $   ",
"  $ * + : > 0 E =.,.,.=.] z s s a s s a s f s s s s z ] =.<.<.*.E 0 > - % % $   ",
"& @ $ * + ; 9 R &.,.<.-.Q v i i i s s i s s s s s i v ! -.,.<.=.R 9 : + * $ $ # ",
"  & # $ o O < T $.,.,.=.Q z i i i i s s s s s s i i k ! =.,.,.$.T 2 O % $ $ #   ",
"        $ o , F { %.%.{ R p y t u u u u u u u u y u p R { %.%.{ D , o @         ",
"        @ $ = w G J J H r 8 2 2 2 2 < 8 2 2 2 2 < 2 8 r H J J G w = $ @         ",
"                & & & & # & $ & # # & $ # & # # # # # & & & & &                 ",
"                                                                                ",
"                  # # # # # # # # # # # # # # # # # # # # # #                   ",
"                  # # # # # # # # # # # # # # # # # # # # # #                   "
};
