/* XPM */
static char *result[] = {
/* columns rows colors chars-per-pixel */
"30 30 213 2 ",
"   c #AF8C00",
".  c #AF8D01",
"X  c #B18D00",
"o  c #B18E00",
"O  c #B18E01",
"+  c #B28F01",
"@  c #B59000",
"#  c #B59100",
"$  c #B59101",
"%  c #B79200",
"&  c #B49102",
"*  c #B89300",
"=  c #B99400",
"-  c #BA9400",
";  c #BB9600",
":  c #BC9600",
">  c #BE9800",
",  c #BF9900",
"<  c #C09900",
"1  c #C19A00",
"2  c #C29B00",
"3  c #C39C00",
"4  c #C59D00",
"5  c #C79F00",
"6  c #C79F01",
"7  c #C8A000",
"8  c #C9A000",
"9  c #C9A100",
"0  c #CAA100",
"q  c #CBA200",
"w  c #CCA300",
"e  c #CDA400",
"r  c #CFA501",
"t  c #D0A600",
"y  c #D1A700",
"u  c #D2A800",
"i  c #D3A800",
"p  c #D4A900",
"a  c #D6AB00",
"s  c #D8AC00",
"d  c #D8AD00",
"f  c #D9AE00",
"g  c #DAAE00",
"h  c #DAAF00",
"j  c #DBAF00",
"k  c #DCB000",
"l  c #DDB000",
"z  c #DDB100",
"x  c #DEB200",
"c  c #DFB200",
"v  c #E0B300",
"b  c #E1B400",
"n  c #E3B500",
"m  c #E4B600",
"M  c #E4B700",
"N  c #E5B700",
"B  c #E4B601",
"V  c #E6B800",
"C  c #E7B900",
"Z  c #E7B901",
"A  c #E8BA00",
"S  c #E9BA00",
"D  c #E9BB00",
"F  c #EBBC00",
"G  c #ECBD00",
"H  c #EDBD00",
"J  c #ECBD01",
"K  c #EDBE00",
"L  c #EEBF00",
"P  c #EFBF00",
"I  c #F0C000",
"U  c #F1C100",
"Y  c #F2C100",
"T  c #F3C200",
"R  c #F1C103",
"E  c #F4C300",
"W  c #F5C400",
"Q  c #F6C500",
"!  c #F7C600",
"~  c #F6C502",
"^  c #F8C600",
"/  c #F8C700",
"(  c #F9C700",
")  c #F9C800",
"_  c #FAC800",
"`  c #FAC801",
"'  c #FBC901",
"]  c #FCCA01",
"[  c #FDCB01",
"{  c #FDCB02",
"}  c #FECB02",
"|  c #FECB03",
" . c #FECC03",
".. c #FFCD04",
"X. c #FFCD05",
"o. c #FECD06",
"O. c #FFCD06",
"+. c #FFCD07",
"@. c #FFCE08",
"#. c #FFCE09",
"$. c #FECD0A",
"%. c #FFCE0A",
"&. c #FFCE0B",
"*. c #FFCF0C",
"=. c #FFCF0D",
"-. c #FFCF0E",
";. c #FFCF0F",
":. c #FFCF10",
">. c #FECF13",
",. c #FDCF14",
"<. c #FFD011",
"1. c #FFD012",
"2. c #FFD013",
"3. c #FFD014",
"4. c #FFD015",
"5. c #FFD016",
"6. c #FFD116",
"7. c #FFD117",
"8. c #FFD118",
"9. c #FFD119",
"0. c #FFD11A",
"q. c #FFD11B",
"w. c #FFD21B",
"e. c #FFD21C",
"r. c #FFD21D",
"t. c #FED11E",
"y. c #FFD21E",
"u. c #FFD21F",
"i. c #FFD320",
"p. c #FED222",
"a. c #FFD322",
"s. c #FFD323",
"d. c #FFD324",
"f. c #FFD426",
"g. c #FFD427",
"h. c #FFD428",
"j. c #FFD429",
"k. c #FFD42A",
"l. c #FFD52A",
"z. c #FFD52B",
"x. c #FFD52C",
"c. c #FFD52D",
"v. c #FFD52E",
"b. c #FFD52F",
"n. c #FFD62F",
"m. c #FFD631",
"M. c #FED632",
"N. c #FFD632",
"B. c #FFD633",
"V. c #FFD634",
"C. c #FFD735",
"Z. c #FFD736",
"A. c #FED737",
"S. c #FFD737",
"D. c #FFD738",
"F. c #FFD839",
"G. c #FFD83A",
"H. c #FFD83B",
"J. c #FFD83C",
"K. c #FED83D",
"L. c #FFD83D",
"P. c #FFD93E",
"I. c #FFD940",
"U. c #FFD941",
"Y. c #FFD942",
"T. c #FFDA42",
"R. c #FFDA43",
"E. c #FFDA44",
"W. c #FFDA45",
"Q. c #FFDA46",
"!. c #FFDB47",
"~. c #FFDB48",
"^. c #FFDB49",
"/. c #FEDA4A",
"(. c #FFDB4A",
"). c #FFDB4B",
"_. c #FEDB4F",
"`. c #FFDC4C",
"'. c #FFDC4D",
"]. c #FFDC4E",
"[. c #FFDC50",
"{. c #FFDD51",
"}. c #FFDD52",
"|. c #FFDD54",
" X c #FEDC55",
".X c #FFDD55",
"XX c #FFDE57",
"oX c #FDDD59",
"OX c #FEDD58",
"+X c #FFDE58",
"@X c #FFDE59",
"#X c #FFDE5B",
"$X c #FFDF5B",
"%X c #FFDF5C",
"&X c #FFDF5D",
"*X c #FFDF5E",
"=X c #FFE061",
"-X c #FFE062",
";X c #FFE063",
":X c #FFE064",
">X c #FFE165",
",X c #FFE166",
"<X c #FFE168",
"1X c #FFE169",
"2X c #FFE26A",
"3X c #FFE26C",
"4X c #FFE26E",
"5X c #FFE36F",
"6X c #FFE371",
"7X c #FFE474",
"8X c #FFE475",
"9X c #FFE579",
"0X c None",
/* pixels */
"0X0X0X0X0X0X0X0X0X0X0X0X0X0X0X0X0X0X0X0X0X0X0X0X0X0X0X0X0X0X",
"0X0X0X0X0X0X0X0X0X0X0X0X0X0X0X0X0X0X0X0X0X0X0X0X0X0X0X0X0X0X",
"0X0X0X0X0X0X0X0X0X0X0X0X0X0X0X0X0X0X0X0X0X0X0X0X0X0X0X0X0X0X",
"0X0X0X0X0X0X0X0X0X0X0X0X0X0X0X0X0X0X0X0X0X0X0X0X0X0X0X0X0X0X",
"0X0X0X0X0X0X0X0X0X0X0X0X0XM.k.p.0X0X0X0X0X0X0X0X0X0X0X0X0X0X",
"0X0X0X0X0X0X0X0X0X0X/.~.U.F.m.g.r.>.$.0X0X0X0X0X0X0X0X0X0X0X",
"0X0X0X0X0X0X0X0X X@X+X}.(.U.D.c.s.7.*.| ~ 0X0X0X0X0X0X0X0X0X",
"0X0X0X0X0X0X0XoX:X,X-X$X}.!.L.N.g.w.;...! J 0X0X0X0X0X0X0X0X",
"0X0X0X0X0X0XOX,X5X6X3X-XXX`.I.C.j.r.1.O.( G B 0X0X0X0X0X0X0X",
"0X0X0X0X0X_.*X2X8X9X6X>X@X].Y.Z.l.y.1.+.) K b 0X0X0X0X0X0X0X",
"0X0X0X0X0X[.&X<X6X7X4X;X+X'.U.C.k.y.1.O.( H v p 0X0X0X0X0X0X",
"0X0X0X0X0X'.+X=X<X1X>X&X|.^.P.B.g.e.:.X.^ F c u 0X0X0X0X0X0X",
"0X0X0X0XK.!.[.+X%X*X#X.X'.R.F.n.d.9.=. .W S l t 6 0X0X0X0X0X",
"0X0X0X0XA.I.!.'.{.}.[.).E.J.B.j.u.3.#.] U V g e 3 0X0X0X0X0X",
"0X0X0X0Xb.S.L.T.W.Q.E.I.H.V.z.a.9.-.X./ H b a 9 , 0X0X0X0X0X",
"0X0X0X0Xg.c.B.S.G.G.F.Z.m.l.s.q.<.@.] T C k y 4 : 0X0X0X0X0X",
"0X0X0X0Xt.s.h.x.v.b.c.l.f.i.0.1.%.} Q G b a q < * 0X0X0X0X0X",
"0X0X0X0X,.8.r.i.a.s.a.u.w.6.:.#. .^ L N h t 4 - $ 0X0X0X0X0X",
"0X0X0X0X0X-.1.4.6.7.5.2.:.&.O.{ ! P V l i 8 > @ 0X0X0X0X0X0X",
"0X0X0X0X0Xo.O.#.%.&.%.@.X.} _ E K N z p q 1 % + 0X0X0X0X0X0X",
"0X0X0X0X0X0X` ' ] [ ] ' / E P D n j p q 2 = X 0X0X0X0X0X0X0X",
"0X0X0X0X0X0XR I U Y U P G A m x d y 0 2 = o . 0X0X0X0X0X0X0X",
"0X0X0X0X0X0X0XZ N N M n v l d i e 5 , * X   0X0X0X0X0X0X0X0X",
"0X0X0X0X0X0X0X0X0Xf s a p t w 5 2 ; # O 0X0X0X0X0X0X0X0X0X0X",
"0X0X0X0X0X0X0X0X0X0Xr q 7 4 1 : * $ & 0X0X0X0X0X0X0X0X0X0X0X",
"0X0X0X0X0X0X0X0X0X0X0X0X0X0X0X0X0X0X0X0X0X0X0X0X0X0X0X0X0X0X",
"0X0X0X0X0X0X0X0X0X0X0X0X0X0X0X0X0X0X0X0X0X0X0X0X0X0X0X0X0X0X",
"0X0X0X0X0X0X0X0X0X0X0X0X0X0X0X0X0X0X0X0X0X0X0X0X0X0X0X0X0X0X",
"0X0X0X0X0X0X0X0X0X0X0X0X0X0X0X0X0X0X0X0X0X0X0X0X0X0X0X0X0X0X",
"0X0X0X0X0X0X0X0X0X0X0X0X0X0X0X0X0X0X0X0X0X0X0X0X0X0X0X0X0X0X"
};
