/* XPM */
static char *slime__1_1676805371[] = {
/* columns rows colors chars-per-pixel */
"30 30 165 2 ",
"   c None",
".  c black",
"X  c #0C0E19",
"o  c #0C1617",
"O  c #1A2627",
"+  c #1A2D2F",
"@  c #1A2E30",
"#  c #1C3133",
"$  c #1D393B",
"%  c #181A57",
"&  c #1B1F59",
"*  c #1C215B",
"=  c #1D225B",
"-  c #1D235D",
";  c #1E255F",
":  c #1E2560",
">  c #1F2660",
",  c #1F2761",
"<  c #202862",
"1  c #212A62",
"2  c #202A63",
"3  c #212B63",
"4  c #222D63",
"5  c #222B66",
"6  c #252F6B",
"7  c #24336A",
"8  c #25356C",
"9  c #26366D",
"0  c #283370",
"q  c #283B71",
"w  c #2B3976",
"e  c #2E3C7B",
"r  c #7B2C57",
"t  c #5D346B",
"y  c #723D66",
"u  c #254143",
"i  c #254245",
"p  c #2B4B4C",
"a  c #2B4C4D",
"s  c #2C4D4E",
"d  c #355D61",
"f  c #2B4176",
"g  c #2D4578",
"h  c #396171",
"j  c #3F6F73",
"k  c #474140",
"l  c #69567E",
"z  c #7E5F79",
"x  c #43787C",
"c  c #44787C",
"v  c #457A7C",
"b  c #874E69",
"n  c #303B87",
"m  c #313D88",
"M  c #324282",
"N  c #324484",
"B  c #334684",
"V  c #314D80",
"C  c #34448B",
"Z  c #36478C",
"A  c #364889",
"S  c #394D8F",
"D  c #3B5E83",
"F  c #355689",
"G  c #36598A",
"H  c #394F90",
"J  c #3A5090",
"K  c #3B5291",
"L  c #3B5391",
"P  c #3D5D9A",
"I  c #3D5F9A",
"U  c #3D6286",
"Y  c #3E6098",
"T  c #3F659A",
"R  c #425E9E",
"E  c #425F9F",
"W  c #435F9F",
"Q  c #42629E",
"!  c #486F9C",
"~  c #487498",
"^  c #577F9F",
"/  c #4360A1",
"(  c #426AA0",
")  c #436DA2",
"_  c #456EA5",
"`  c #4579A5",
"'  c #4C78A2",
"]  c #477DA8",
"[  c #498085",
"{  c #4E898B",
"}  c #50859F",
"|  c #678D8F",
" . c #4D81A5",
".. c #4F80A5",
"X. c #4C84A5",
"o. c #4981AB",
"O. c #4A83AC",
"+. c #4A84AE",
"@. c #4B85AF",
"#. c #4C87AF",
"$. c #4C88AF",
"%. c #5082A4",
"&. c #5387AB",
"*. c #548BA8",
"=. c #5795A7",
"-. c #5796A7",
";. c #5A9EA4",
":. c #5897A9",
">. c #5893AC",
",. c #5996AD",
"<. c #5898AB",
"1. c #5998AF",
"2. c #4B82B0",
"3. c #4B83B0",
"4. c #4C84B0",
"5. c #4C85B1",
"6. c #4C85B3",
"7. c #4C88B0",
"8. c #4E8BB3",
"9. c #4D8BB4",
"0. c #4E8DB5",
"q. c #528CB3",
"w. c #5195B7",
"e. c #5496B7",
"r. c #5497B7",
"t. c #5698B3",
"y. c #5799B3",
"u. c #5899B3",
"i. c #629EB0",
"p. c #5CA0A6",
"a. c #5BA1B6",
"s. c #5BA1B7",
"d. c #5BA4B6",
"f. c #5DA4B7",
"g. c #5CA7B6",
"h. c #5CA3B8",
"j. c #5EA7B8",
"k. c #5FA8B8",
"l. c #5FABBB",
"z. c #60A5B3",
"x. c #62ACB1",
"c. c #61A8B4",
"v. c #63AEB5",
"b. c #62A9B8",
"n. c #62ACB8",
"m. c #63AEB8",
"M. c #61ACBC",
"N. c #64B0B7",
"B. c #65B1B7",
"V. c #64B2B8",
"C. c #65B2B9",
"Z. c #66B3B9",
"A. c #66B2BA",
"S. c #66B2BC",
"D. c #67B5BC",
"F. c #68B6B9",
"G. c #68B7BB",
"H. c #68B6BC",
"J. c #68B7BD",
"K. c #6FB7BD",
"L. c #69B9BE",
"P. c #70B3BA",
"I. c #6ABAC0",
"U. c #B7C1C2",
"Y. c #ACDADD",
/* pixels */
"                                                            ",
"                                                            ",
"                                                            ",
"                    7 9 9 8 8 9 8 9                         ",
"                  - G O.O.O.O.O.O.O.g *                     ",
"                , M ) e.g.g.l.M.b.c.<.U %                   ",
"                , I q.d.K.Y.| x A.B.v h D                   ",
"                f ` h.V.P.U.k $ A.v.+ s <.4                 ",
"              q O.8.d.J.;.O . i S.v.# s =.4                 ",
"              q #.f.m.D.;.o . u V.v.@ s =.4                 ",
"              q #.b.F.J.x.x d [ V.V.v { =.4                 ",
"              q #.d.,.*.*.S.I.J.Z.Z.K.b.~ <                 ",
"              q 4.8.( Z S ,.c.z.z.z.z.] B <                 ",
"              q 4.8.u.%.C S K K K K K ' } <                 ",
"              7 V ] e.u.} y r t n m ~ y.X.<                 ",
"                ; T 4.e.i.z b l P P &. .G <                 ",
"                , A _ 4.4.3.3.3.4.3.Q e *                   ",
"                  < B / E E E E E R w ,                     ",
"                    6 0 0 0 0 0 0 0 5                       ",
"                      & & & & & & &                         ",
"                                                            ",
"                                                            ",
"                                                            ",
"                X X X X X X X X X X X X                     ",
"              X X X X X X X X X X X X X X                   ",
"              X X X X X X X X X X X X X X                   ",
"              X X X X X X X X X X X X X X                   ",
"                X X X X X X X X X X X X                     ",
"                                                            ",
"                                                            "
};
