/* XPM */
static char *result[] = {
/* columns rows colors chars-per-pixel */
"40 40 56 1 ",
"  c #145E0C",
". c #1A5C12",
"X c #16640D",
"o c #1A650E",
"O c #17690E",
"+ c #1C6A0E",
"@ c #1E700F",
"# c #166512",
"$ c #1B6612",
"% c #156A13",
"& c #1C6C13",
"* c #1A651A",
"= c #166D19",
"- c #1C6D1A",
"; c #1D7115",
": c #17721B",
"> c #1C731A",
", c #1E791E",
"< c #216D0E",
"1 c #23730F",
"2 c #226D13",
"3 c #286F15",
"4 c #236619",
"5 c #226D1A",
"6 c #286F1B",
"7 c #237314",
"8 c #297515",
"9 c #257916",
"0 c #2B7A15",
"q c #23741A",
"w c #2B751B",
"e c #257A1A",
"r c #2B7B1A",
"t c #307B15",
"y c #31761B",
"u c #327D1A",
"i c #1E6B20",
"p c #1C7521",
"a c #1D7821",
"s c #217525",
"d c #2B7420",
"f c #2C7A23",
"g c #2E7F2D",
"h c #327721",
"j c #327C23",
"k c #2F8117",
"l c #2C811B",
"z c #308017",
"x c #31821B",
"c c #3A841F",
"v c #278322",
"b c #2B8123",
"n c #398121",
"m c #3D852A",
"M c #389021",
"N c #448C2A",
/* pixels */
"eO>;%;@72rr78&qo0%;;&>>70782<7q7&o&X,r9b",
"r$70;9;77&q7q7<+7$X2&%>;ww3<2,9O2 ;==>:i",
"2&2899k@7&q-&++r9&7%$>f8678%;-re2X=&pfq%",
"+&7<&78o85=,>2o8777$&$&0$8+&>&7rl&&&$8q ",
"29+O2&0$35q878O78;7>&$4%%&>&;>;;2&-4&&e;",
">&&e7783e;79r+O&%%9#s$;%O;7&;>&8%5*q&;-q",
"%&71&%4&&>807&7q;%;55OX&;9O2;;&r5-#;&%r&",
"p:=:54&,:X&&92X7e;o88t227r1;771rq&#o7%&&",
"&&8;q&79@7;77o<8#$472u7r07@77285-O1q7%O9",
"X7<3&r7lk%t722<o#%7<<7lk00>e79r&18&e1833",
"<8878r1187r82374o3o&$>>;8079rq7&11;;283y",
"883&2o7+&6wjdh2w$8r8&:e>r0%7wqe7<>777whh",
"u69wo97%7$3wdddqru0t7;e&r7q73&va9;%$-sj4",
"8-;80<oo6$225di58w89&7#&r&27o2e=%7&2qq74",
"88-;8%%;&4r07hgww+&2X8eof&7+27$&223227++",
"%7;@%98q>%qr825dyX;;&2&$w7r77+-7+<+ qf3&",
"97;%7@o72qr6q5*-2&-Oo7+2e32+7q>#2X&2=5w4",
"0;OX78&22$72&$&$9&%O2&.+&;0q:;%>9;>3-,+X",
"7X##%<+ow8e>>87&7;;<7627o717;;&7973e9;O2",
"<X#o&75$7er&&e7798775<o2o2+77;98rwq%9898",
";7%q5$q79;98r&o&&@777o&&&&<%;7727&&X7772",
"%&;75&5<&>>%72&7>85q8&&;;92&2&3&X&7;&%e&",
"==;>>=&;>X%&7<X0p-&#O&2e8l7223w3--&&7%7>",
"-qw=&&;e%-;=;X+w&&&21++887772w8o&+177Oe>",
"72<8>28e0O0+17+22o&<o8q<r807frq>e7&e7772",
"w887&&&1-8&7&83w8+2++o;2180-r2@277;;<12#",
"q8<77++9>q;;-w3e&&r82+771r&5077,8++8127-",
"&78270++7%72&7+8880z878&88-&7;e>@7;8;=8$",
"7>e8e8$727ry$&;O0z09;7e&r778&;7&X113qq8$",
"79;77&&;q-rr78r7127&X873rO;97&&;%7<8ee&7",
"289+;>>f7&9M8re;8O&&225277t19&&e>7+$6le&",
"kO,l%9O7570;;79k7%;7o2o&e&<<&q;2&$7*:;;7",
"7$7788&3228&97%&8X&%52 <e78&;=-9o$54:l2%",
"+&72+2.%007&rr&&7;7$$228o82&,>>;&%$%&8%2",
"%$o2$5$o7er;2e97rq77&Oo<o7&&>-$-w7-&O2e2",
"772q5&728798eqo2&$r;O&2&&%e>q>$qO>-q2>&>",
"&$&q5&07+2w$3$5-&q;O0oO7+08877q;&>%;+&53",
"2&2e+77e273fwwX3-177<88<77818re2;+88w5wd",
"w738<z&q025jjhfeq+2<0tt<&2<8w99$7e72yymN",
"7w9&&1&27qs5dw4q-=>o7170o8yo72ea#7<8ycnn"
};
