/* XPM */
static char *result[] = {
/* columns rows colors chars-per-pixel */
"40 40 126 2 ",
"   c #060605",
".  c #090806",
"X  c #0C0B09",
"o  c #120D09",
"O  c #15120D",
"+  c #1B150D",
"@  c #121211",
"#  c #191614",
"$  c #1F1911",
"%  c #1C1A1A",
"&  c #20190F",
"*  c #2C1A0F",
"=  c #251E15",
"-  c #291F15",
";  c #211F1D",
":  c #301D12",
">  c #2D2316",
",  c #22201E",
"<  c #2C251D",
"1  c #312117",
"2  c #352A1B",
"3  c #3A2F1E",
"4  c #232121",
"5  c #2A2625",
"6  c #2D2A2A",
"7  c #3D2F27",
"8  c #322E2C",
"9  c #3C3226",
"0  c #33302F",
"q  c #3B342F",
"w  c #363332",
"e  c #393635",
"r  c #3E3A3A",
"t  c #4E301E",
"y  c #5F341C",
"u  c #723D1E",
"i  c #473A27",
"p  c #4B3E29",
"a  c #50392A",
"s  c #423D3C",
"d  c #6A3C21",
"f  c #703E22",
"g  c #51432E",
"h  c #4B4135",
"j  c #45403F",
"k  c #51483E",
"l  c #5F5138",
"z  c #754527",
"x  c #784327",
"c  c #70472E",
"v  c #634431",
"b  c #664C3E",
"n  c #60523B",
"m  c #7F5035",
"M  c #464241",
"N  c #4A4545",
"B  c #4D4847",
"V  c #4E4948",
"C  c #524D4C",
"Z  c #565151",
"A  c #595352",
"S  c #5E5857",
"D  c #5D5A5C",
"F  c #6E5345",
"G  c #6D5E46",
"H  c #60554F",
"J  c #675A4C",
"K  c #745745",
"L  c #625C5B",
"P  c #67605F",
"I  c #746650",
"U  c #7E6150",
"Y  c #756853",
"T  c #796953",
"R  c #6B6463",
"E  c #726B6A",
"W  c #7F746A",
"Q  c #747172",
"!  c #7B7372",
"~  c #7E7B7D",
"^  c #804626",
"/  c #864A26",
"(  c #8B4822",
")  c #814D2D",
"_  c #924D26",
"`  c #8D532C",
"'  c #98542A",
"]  c #965934",
"[  c #9A5832",
"{  c #9A603E",
"}  c #C77D3F",
"|  c #855A41",
" . c #A26C4B",
".. c #B06D45",
"X. c #B4784D",
"o. c #8E7360",
"O. c #877967",
"+. c #8B7E6E",
"@. c #807876",
"#. c #847B7B",
"$. c #897F7E",
"%. c #C97B40",
"&. c #89807F",
"*. c #CB8557",
"=. c #CF8C5C",
"-. c #8D8382",
";. c #898688",
":. c #928785",
">. c #928887",
",. c #9A8D83",
"<. c #948A89",
"1. c #998E8D",
"2. c #9A908F",
"3. c #9D9391",
"4. c #A19695",
"5. c #A39897",
"6. c #A69B9A",
"7. c #A89D9C",
"8. c #A19DA0",
"9. c #AEA3A2",
"0. c #B0A5A4",
"q. c #B0ACAF",
"w. c #BAB5B9",
"e. c #BDB8BC",
"r. c #C0BBBF",
"t. c None",
/* pixels */
"t.t.t.t.t.t.t.t.t.t.t.t.t.t.t.t.t.t.t.t.t.t.t.t.t.t.t.t.t.t.t.t.t.t.t.t.t.t.t.t.",
"t.t.t.t.t.t.t.t.t.t.t.t.t.t.t.t.t.t.t.t.t.t.t.t.t.t.t.t.t.t.t.t.t.t.t.t.t.t.t.t.",
"t.t.t.t.t.t.t.t.t.t.t.t.t.t.t.t.t.t.t.t.t.t.t.t.t.t.t.t.t.t.t.t.t.t.t.t.t.t.t.t.",
"t.t.t.t.t.t.t.t.t.t.t.t.t.t.t.t.t.t.t.t.t.t.t.t.t.t.t.t.t.t.t.t.t.t.t.t.t.t.t.t.",
"t.t.t.t.t.t.t.t.t.t.t.t.t.t.t.t.t.t.t.t.t.t.t.t.t.t.t.t.t.t.t.t.t.t.t.t.t.t.r.t.",
"t.t.t.t.t.t.t.t.t.t.t.t.t.t.t.t.t.t.t.t.t.t.t.t.t.t.t.t.t.t.t.t.t.t.t.t.w.e.8.Q ",
"t.t.t.t.t.t.t.t.t.t.t.t.t.t.t.t.t.t.t.t.t.t.t.t.t.t.t.t.t.t.t.t.t.t.t.w.q.;.D t.",
"t.t.t.t.t.t.t.t.t.t.t.t.t.t.t.t.t.t.t.t.t.t.t.t.t.t.t.t.t.t.t.t.t.0.6.1.~ Z t.t.",
"t.t.t.t.t.t.t.t.t.t.t.t.t.t.t.t.t.t.t.t.t.t.t.t.t.t.t.t.t.t.t.6.6.2.@.P C t.t.t.",
"t.t.t.t.t.t.t.t.t.t.t.t.t.t.t.t.t.t.t.t.t.t.t.t.t.t.t.t.t.t.6.3.&.E A r t.t.t.t.",
"t.t.t.t.t.t.t.t.t.t.t.t.t.t.t.t.t.t.t.t.t.t.t.t.t.t.t.t.4.1.>.! R N w t.t.t.t.t.",
"t.t.t.t.t.t.t.t.t.t.t.t.t.t.t.t.t.t.t.t.t.t.t.t.t.t.3.3.>.! R S s 8 t.t.t.t.t.t.",
"t.t.t.t.t.t.t.t.t.t.t.t.t.t.t.t.t.t.t.t.t.t.t.t.t.:.>.$.! L C w 8 t.t.t.t.t.t.t.",
"t.t.t.t.t.t.t.t.t.t.t.t.t.t.t.t.t.t.t.t.t.t.t.<.>.-.! R Z s 6 5 t.t.t.t.t.t.t.t.",
"t.t.t.t.t.t.t.t.t.t.t.t.t.t.t.t.t.t.t.t.t.4.1.-.#.! L V e 5 t.t.t.t.t.t.t.t.t.t.",
"t.t.t.t.t.t.t.t.t.t.t.t.t.t.t.t.t.t.t.t.3.1.-.@.E D N w 4 t.t.t.t.t.t.t.t.t.t.t.",
"t.t.t.t.t.t.t.t.t.t.t.t.t.t.t.t.t.t.2.1.<.-.! L Z s 6 % t.t.t.t.t.t.t.t.t.t.t.t.",
"t.t.t.t.t.t.t.t.t.t.t.t.t.t.t.t.3.3.2.1.#.E L B e 5 % t.t.t.t.t.t.t.t.t.t.t.t.t.",
"t.t.t.t.t.t.t.t.t.t.t.t.t.t.t.4.4.3.>.#.E L B w 4 % t.t.t.t.t.t.t.t.t.t.t.t.t.t.",
"t.t.t.t.t.t.t.t.t.t.t.t.t.3.5.4.1.$.! E S N 8 4 % t.t.t.t.t.t.t.t.t.t.t.t.t.t.t.",
"t.t.t.t.t.t.t.t.t.t.t.7.7.5.4.<.-.Q R A j 8 4 % t.t.t.t.t.t.t.t.t.t.t.t.t.t.t.t.",
"t.t.t.t.t.t.t.t.t.3.5.9.0.6.<.#.Q R A M 6 ; t.t.t.t.t.t.t.t.t.t.t.t.t.t.t.t.t.t.",
"t.t.t.t.t.t.t.t.Y O.,.4.4.<.-.! R A s 6 ; ; t.t.t.t.t.t.t.t.t.t.t.t.t.t.t.t.t.t.",
"t.t.t.t.t.t.k p g n T +.:.&.@.R A s 6 ; ; t.t.t.t.t.t.t.t.t.t.t.t.t.t.t.t.t.t.t.",
"t.t.t.t.t.< = $ 2 g G Y W ~ R A r 6 5 4 t.t.t.t.t.t.t.t.t.t.t.t.t.t.t.t.t.t.t.t.",
"t.t.t.4 @ @ O ; < 9 g l J L Z r 6 6 4 t.t.t.t.t.t.t.t.t.t.t.t.t.t.t.t.t.t.t.t.t.",
"t.t.s s e # 5 ; + - 3 i h C s 8 6 % t.t.t.t.t.t.t.t.t.t.t.t.t.t.t.t.t.t.t.t.t.t.",
"t.t.| H S w @ @ X + > 2 9 w 8 8 4 t.t.t.t.t.t.t.t.t.t.t.t.t.t.t.t.t.t.t.t.t.t.t.",
"t.K U F F 7 # X   o $ = > 5 0 t.t.t.t.t.t.t.t.t.t.t.t.t.t.t.t.t.t.t.t.t.t.t.t.t.",
"5 ) o.X.] < 8 %     O + $ 5 t.t.t.t.t.t.t.t.t.t.t.t.t.t.t.t.t.t.t.t.t.t.t.t.t.t.",
"8  .=.*.f ] b 6     X O $ t.t.t.t.t.t.t.t.t.t.t.t.t.t.t.t.t.t.t.t.t.t.t.t.t.t.t.",
"t.a ^ %.) ..[ y . . X O t.t.t.t.t.t.t.t.t.t.t.t.t.t.t.t.t.t.t.t.t.t.t.t.t.t.t.t.",
"t.v u } ` ( _ f X   t.t.t.t.t.t.t.t.t.t.t.t.t.t.t.t.t.t.t.t.t.t.t.t.t.t.t.t.t.t.",
"t.e c x ` ' d t X t.t.t.t.t.t.t.t.t.t.t.t.t.t.t.t.t.t.t.t.t.t.t.t.t.t.t.t.t.t.t.",
"t.t.t.- - / : @ t.t.t.t.t.t.t.t.t.t.t.t.t.t.t.t.t.t.t.t.t.t.t.t.t.t.t.t.t.t.t.t.",
"t.t.t.t.t.o o t.t.t.t.t.t.t.t.t.t.t.t.t.t.t.t.t.t.t.t.t.t.t.t.t.t.t.t.t.t.t.t.t.",
"t.t.t.t.t.t.t.t.t.t.t.t.t.t.t.t.t.t.t.t.t.t.t.t.t.t.t.t.t.t.t.t.t.t.t.t.t.t.t.t.",
"t.t.t.t.t.t.t.t.t.t.t.t.t.t.t.t.t.t.t.t.t.t.t.t.t.t.t.t.t.t.t.t.t.t.t.t.t.t.t.t.",
"t.t.t.t.t.t.t.t.t.t.t.t.t.t.t.t.t.t.t.t.t.t.t.t.t.t.t.t.t.t.t.t.t.t.t.t.t.t.t.t.",
"t.t.t.t.t.t.t.t.t.t.t.t.t.t.t.t.t.t.t.t.t.t.t.t.t.t.t.t.t.t.t.t.t.t.t.t.t.t.t.t."
};
