/* XPM */
static char *result[] = {
/* columns rows colors chars-per-pixel */
"40 40 206 2 ",
"   c #020201",
".  c #02020B",
"X  c #0A0B0B",
"o  c #080706",
"O  c #110F0E",
"+  c #14100F",
"@  c #000015",
"#  c #0C0E12",
"$  c #00021A",
"%  c #0D1115",
"&  c #0C121A",
"*  c #141313",
"=  c #1B1614",
"-  c #1D1815",
";  c #151C1C",
":  c #13161D",
">  c #290000",
",  c #211916",
"<  c #231C1A",
"1  c #2D1E1A",
"2  c #002318",
"3  c #2B221D",
"4  c #121B24",
"5  c #000B27",
"6  c #211E21",
"7  c #042E20",
"8  c #15232D",
"9  c #132334",
"0  c #2D2523",
"q  c #21242C",
"w  c #2E2A2E",
"e  c #342924",
"r  c #3B2B23",
"t  c #322824",
"y  c #393536",
"u  c #3E302A",
"i  c #470000",
"p  c #45342C",
"a  c #473229",
"s  c #593C2B",
"d  c #473B37",
"f  c #553D35",
"g  c #104B30",
"h  c #5B433B",
"j  c #57453B",
"k  c #634536",
"l  c #654B3A",
"z  c #6C4B3B",
"x  c #684837",
"c  c #734C3B",
"v  c #6E513D",
"b  c #73513B",
"n  c #00304F",
"m  c #1F3644",
"M  c #383B44",
"N  c #32394B",
"B  c #1B3761",
"V  c #463E42",
"C  c #3C4459",
"Z  c #156947",
"A  c #3B7058",
"S  c #1F4579",
"D  c #394966",
"F  c #2A6D6B",
"G  c #434246",
"H  c #5D4C45",
"J  c #424654",
"K  c #664D44",
"L  c #784B45",
"P  c #6D5648",
"I  c #735442",
"U  c #7C5343",
"Y  c #765945",
"T  c #7B5A44",
"R  c #73554A",
"E  c #745A4D",
"W  c #7B5D4B",
"Q  c #735B52",
"!  c #6B5954",
"~  c #7D614C",
"^  c #7B6153",
"/  c #7D645C",
"(  c #726356",
")  c #555868",
"_  c #6F5F64",
"`  c #5B667C",
"'  c #6B656A",
"]  c #63636D",
"[  c #776966",
"{  c #64667A",
"}  c #7B7378",
"|  c #6D6D74",
" . c #864847",
".. c #8C4343",
"X. c #835A45",
"o. c #835949",
"O. c #8D5B4F",
"+. c #9F5252",
"@. c #89565E",
"#. c #A65858",
"$. c #82634E",
"%. c #8B634B",
"&. c #846453",
"*. c #876853",
"=. c #85655A",
"-. c #8B6C5C",
";. c #896957",
":. c #926653",
">. c #976C58",
",. c #A1715C",
"<. c #8B6B63",
"1. c #886B67",
"2. c #936F67",
"3. c #947164",
"4. c #9E7A6B",
"5. c #9F7161",
"6. c #8A7678",
"7. c #99797A",
"8. c #886E6F",
"9. c #A27362",
"0. c #A47B6D",
"q. c #AA7C6C",
"w. c #A57D72",
"e. c #AF7F70",
"r. c #B17F70",
"t. c #988B7F",
"y. c #AE826F",
"u. c #B0826F",
"i. c #AE8472",
"p. c #AD877B",
"a. c #B28374",
"s. c #B48878",
"d. c #2B558A",
"f. c #2C6E96",
"g. c #496692",
"h. c #7B7584",
"j. c #767689",
"k. c #697798",
"l. c #747C9A",
"z. c #6B7087",
"x. c #587CAF",
"c. c #857C8A",
"v. c #937D83",
"b. c #688699",
"n. c #5786BD",
"m. c #7387AD",
"M. c #6785B5",
"N. c #7290BD",
"B. c #748FB0",
"V. c #5992CE",
"C. c #6C93C4",
"Z. c #7A95C7",
"A. c #6498D5",
"S. c #7AA5DE",
"D. c #6DB5F5",
"F. c #978989",
"G. c #9A938A",
"H. c #928B98",
"J. c #B38E83",
"K. c #BB958A",
"L. c #B6928C",
"P. c #B09490",
"I. c #AD949A",
"U. c #9FA099",
"Y. c #A3A39E",
"T. c #9698A7",
"R. c #878DAE",
"E. c #A49AAE",
"W. c #9AA4A9",
"Q. c #A8ABAA",
"!. c #AEB3B4",
"~. c #ABB6B9",
"^. c #B5BCBB",
"/. c #B9BEBD",
"(. c #B1B5B7",
"). c #B4ADA6",
"_. c #B9C0BE",
"`. c #8B9ECB",
"'. c #95ABD2",
"]. c #ACBAC2",
"[. c #AEBEC9",
"{. c #B3BEC0",
"}. c #B9BFC3",
"|. c #A3BED4",
" X c #A1BFD9",
".X c #9FC1DE",
"XX c #B6C1C3",
"oX c #BAC4C4",
"OX c #B9C7CB",
"+X c #ABC4D8",
"@X c #99C6E7",
"#X c #89CCF5",
"$X c #94CCF3",
"%X c #83D6FE",
"&X c #99D8FA",
"*X c #A4CAE6",
"=X c #AFD4EE",
"-X c #92F1FD",
";X c #98E1FE",
":X c #D7D6D5",
">X c #CBE1DF",
",X c #D5EFFD",
"<X c #D1E6F0",
"1X c #F9FBFC",
"2X c #E9EBED",
"3X c None",
/* pixels */
"3X3X3X3X3X3X3X3X3X3X3X3X3X3X3X3X3X3X3X3X3X3X3X3X3X3X3X3X3X3X3X3X3X3X3X3X3X3X3X3X",
"3X3X3X3X3X3X3X3X3X3X3X3X3X3X3X3X3X3X3X3X3X3X3X3X3X3X3X3X3X3X3X3X3X3X3X3X3X3X3X3X",
"3X3X3X3X3X3X3X3X3X3X3X3X3X3X3X3X3X3X3X3X3X3X3X3X3X3X3X3X3X3X3X3X3X3X3X3X3X3X3X3X",
"3X3X3X3X3X3X3X3X3X3X3X3X3X3X3X3X3X3X3X3X3X3X3X3X3X3X3X3X3X3X3X3X3X3X3X3X3X3X3X3X",
"3X3X3X3X3X3X3X3X3X3X3X3X3X3X3X3X3X3X3X3X3X3X3X3X3X3X3X3X3X3X3X3X3X3X3X3X3X3X3X3X",
"3X3X3X3X3X3X3X3X3X3X3X3X3X3X3X3X3X3X3X3X3X3X3X3X3X3X3X3X3X3X3X3X3X3X3X3X3X3X3X3X",
"3X3X3X3X3X3X3X3X3X3X3X* X # X & : 8 9 3X3X3X3X3X3X3X3X3X3X3X3X3X3X3X3X3X3X3X3X3X",
"3X3X3X3X3X3X3X3X3X% X o X X X X X % X % $ 3X3X3X3X3X3X3X3X3X3X3X3X3X3X3X3X3X3X3X",
"3X3X3X3X3X3X3X3XX X o X X o o X # & . # & . 3X3X3X3X3X3X3X3X3X3X3X3X3X3X3X3X3X3X",
"3X3X3X3X3X3X3X  X X X - 3 1 = X X % & # # % $ 3X3X3X3X3X3X3X3X3X3X3X3X3X3X3X3X3X",
"3X3X3X3X3X3X3X. o + r k  .b x a < 6 w 6 : # $ 3X3X3X3X3X3X3X3X3X3X3X3X3X3X3X3X3X",
"3X3X3X3X3X3X3XX + a c X.>.,.9.9.:.=.} { D # @ 3X3X3X3X3X3X3X3X3X3X3X3X3X3X3X3X3X",
"3X3X3X3X3X3X  X r z X.>.q.r.r.r.q.w.v.R.M.N & 3X3X3X3X3X3X3X3X3X3X3X3X3X3X3X3X3X",
"3X3X3X3X3X3X  * s b :.5.e.r.s.s.a.q.v.c.Z.g.9 3X3X3X3X3X3X3X3X3X3X3X3X3X3X3X3X3X",
"3X3X3X3X3X3X  < z o.:.5.q.r.s.a.r.w.F.H.Z.n.B 3X3X3X3X3X3X3X3X3X3X3X3X3X3X3X3X3X",
"3X3X3X3X3X3X  3 c z f ! <.L.K.K.v.8._ h.S.A.S 3X3X3X3X3X3X3X3X3X3X3X3X3X3X3X3X3X",
"3X3X3X3X3X3X3X1 l e d H R w.K.J.:.f d V V.D.d.3X3X3X3X3X3X3X3X3X3X3X3X3X3X3X3X3X",
"3X3X3X3X      X * X = , , = r 0 , , , + 4 8 & & 3X3X3X3X3X3X3X3X3X3X3X3X3X3X3X3X",
"3X3X3X3X3X    = 0 o       . O.K   o . X #       3X3X3X3X3X3X3X3X3X3X3X3X3X3X3X3X",
"3X3X3X3X3X  o < a r       1 O.h.:   . d ) 8     3X3X3X3X3X3X3X3X3X3X3X3X3X3X3X3X",
"3X3X3X3X3X3Xo o o < o   a o.5.T.m., o 0 4 4 o Z 3X3X3X3X3X3X3X3X3X3X3X3X3X3X3X3X",
"3X3X3X3X3X3X> f j R <.1.2.&.p.I.R.2.2.7.m.n.` 3X3X3X3X3X3X3X3X3X3X3X3X3X3X3X3X3X",
"3X3X3X3X3X3Xi V K =.w.J.0.L 2.6.6.a.L.E.`.A.F 3X3X3X3X3X3X3X3X3X3X3X3X3X3X3X3X3X",
"3X3X3X3X3X3X3XR d Q 4.J.q.O.5.7.7.r.P.`.`.f.3X3X3X3X3X3X3X3X3X3X3X3X3X3X3X3X3X3X",
"3X3X3X3X3X3X3X3Xy H ;.3.*.*.0.0.1.Q H.'.x.n 3X3X3X3X3X3X3X3X3X3X3X3X3X3X3X3X3X3X",
"3X3X3X3X3X3X3X3Xj p P K I L .... ./ ) N.g.5 3X3X3X3X3X3X3X3X3X3X3X3X3X3X3X3X3X3X",
"3X3X3X3X3X3X3X3X' 3 j ;.U  .+.#.@.<.6.' J m 3X3X3X3X3X3X3X3X3X3X3X3X3X3X3X3X3X3X",
"3X3X3X3X3X3X3X3X!.- j *.>.T c U &.<.6.` ) } 7 g 3X3X3X3X3X3X3X3X3X3X3X3X3X3X3X3X",
"3X3X3X3X3X3X3X3X:Xr 3 j -.0.i.i.0.8.h.C D '.).; A 3X3X3X3X3X3X3X3X3X3X3X3X3X3X3X",
"3X3X3X3X3X3X3X3X:Xk r 3 l Q =.-.[ [ J N k..X1X>X3X3X3X3X3X3X3X3X3X3X3X3X3X3X3X3X",
"3X3X3X3X3X3X3X+X` l l e < 3 3 t 0 0 y { l.C.B.W.3X3X3X3X3X3X3X3X3X3X3X3X3X3X3X3X",
"3X3X3X3X3X1XoXN u v I v j 3 - - ; C z.} j.C.x.V b.&X,X3X3X3X3X3X3X3X3X3X3X3X3X3X",
"3X3X3X2X!.W.Q.p s v ~ ~ v E ( P ( } l.} h.N.M.] [ &X$X.X=X3X3X3X3X3X3X3X3X3X3X3X",
"3X2X(.T.Q.!.^.( j v $.$.E P ( -.=.| j.1.h.B.k.( G.OX+X+X]..X=X-X3X3X3X3X3X3X3X3X",
"_.W.Q.!.(._._.G.s v ~ $.~ ~ E E P [ [ -.} B.{ *.Q.OXOXXX].~.~.#X&X-X3X3X3X3X3X3X",
"Q.~.^._.^.XX_.^.j x ~ $.~ ~ $.W ~ / -.-.} j.! ;.OXOXXXXXXX~.XX@X+X#X;X3X3X3X3X3X",
"!.^.^._././.XXoXU.k b ~ ~ Y ~ $.~ ~ *./ [ / ~ Y.OXoXOX_._._.XX@X]. X%X;X3X3X3X3X",
"(.^././.}./._.oX_.G.v v Y b k l b b Y Y ~ -.G.OXOX_.OXXXXX]._..X~.+X$X%X,X3X3X3X",
"^.^././.oX_.^._._._.t.b b b b x b T T $.3.Q.oXoX_.XXOXXXXX_.~.].].XX@X$X&X1X3X3X",
"(.^./.^.oX(.^.^._._.^.t.%.%.%.%.%.%.%.t._._._._._._.oX_._.XX~.XX^.XX@X|.@X,X3X3X"
};
