/* XPM */
static char *player__1___1_1676645601[] = {
/* columns rows colors chars-per-pixel */
"40 40 167 2 ",
"   c None",
".  c #020201",
"X  c #0B0603",
"o  c #0C0805",
"O  c #04060D",
"+  c #06080F",
"@  c #0C090A",
"#  c #120B07",
"$  c #150E09",
"%  c #1B110B",
"&  c #090B14",
"*  c #0C0E19",
"=  c #050E1B",
"-  c #111114",
";  c #1F1711",
":  c #1E1B18",
">  c #24160D",
",  c #29190E",
"<  c #301C0F",
"1  c #261710",
"2  c #261A11",
"3  c #2D1D12",
"4  c #251D1B",
"5  c #311E14",
"6  c #2E2115",
"7  c #2C2019",
"8  c #332114",
"9  c #3A2516",
"0  c #32221B",
"q  c #3B2718",
"w  c #3F2D1E",
"e  c #0A1833",
"r  c #0D1F3F",
"t  c #2F2921",
"y  c #3A2922",
"u  c #342A24",
"i  c #3B352C",
"p  c #402717",
"a  c #432B1A",
"s  c #492E1B",
"d  c #4D321D",
"f  c #50341F",
"g  c #4D3421",
"h  c #45342B",
"j  c #4D392F",
"k  c #443126",
"l  c #523621",
"z  c #563923",
"x  c #593B24",
"c  c #5B3D2A",
"v  c #4E3B30",
"b  c #453F38",
"n  c #5F4229",
"m  c #574438",
"M  c #5D4738",
"N  c #61412D",
"B  c #694730",
"V  c #6B4934",
"C  c #624838",
"Z  c #724D38",
"A  c #6E503B",
"S  c #71513E",
"D  c #7B553D",
"F  c #7B5D3F",
"G  c #10254E",
"H  c #1A3155",
"J  c #193668",
"K  c #264578",
"L  c #4E4E4F",
"P  c #554C40",
"I  c #5F5344",
"U  c #55535A",
"Y  c #645041",
"T  c #6B5746",
"R  c #695E4E",
"E  c #7F5940",
"W  c #7D5D48",
"Q  c #725341",
"!  c #746553",
"~  c #796755",
"^  c #7B6856",
"/  c #7F715E",
"(  c #434C62",
")  c #4A546E",
"_  c #665F66",
"`  c #696166",
"'  c #7D6964",
"]  c #845C43",
"[  c #885E47",
"{  c #8B6147",
"}  c #8C654E",
"|  c #93684D",
" . c #946C51",
".. c #9B6E52",
"X. c #8E7356",
"o. c #9F7053",
"O. c #9F795E",
"+. c #95735B",
"@. c #A27A5E",
"#. c #AD7B5D",
"$. c #A5775B",
"%. c #B07E5F",
"&. c #86786C",
"*. c #8D7C67",
"=. c #947D67",
"-. c #817377",
";. c #A67D63",
":. c #A97C61",
">. c #9C876D",
",. c #92806B",
"<. c #9B8770",
"1. c #A08467",
"2. c #A8866B",
"3. c #A39077",
"4. c #A6937C",
"5. c #B49376",
"6. c #B59679",
"7. c #BA9778",
"8. c #BB997B",
"9. c #BB9576",
"0. c #1F478D",
"q. c #1D4484",
"w. c #325387",
"e. c #37588D",
"r. c #33568B",
"t. c #24539D",
"y. c #335790",
"u. c #365B93",
"i. c #285CA9",
"p. c #275AA7",
"a. c #255EB2",
"s. c #2D62AD",
"d. c #3D69A9",
"f. c #2963B3",
"g. c #2864BA",
"h. c #2F6ABC",
"j. c #5B6A80",
"k. c #536F9B",
"l. c #5E789D",
"z. c #4771B1",
"x. c #4577BB",
"c. c #537CB6",
"v. c #537EBC",
"b. c #867D89",
"n. c #857C86",
"m. c #71849F",
"M. c #7D849D",
"N. c #7C86A1",
"B. c #80808D",
"V. c #8E8F9A",
"C. c #969698",
"Z. c #AC9A80",
"A. c #B39D82",
"S. c #BA9E81",
"D. c #BEA98D",
"F. c #BBA185",
"G. c #BAA990",
"H. c #878DA3",
"J. c #8C93A9",
"K. c #959DB1",
"L. c #9EA7BA",
"P. c #C4A384",
"I. c #C1AB8E",
"U. c #C3AE91",
"Y. c #C7B294",
"T. c #C8B293",
"R. c #D2BA9A",
/* pixels */
"                                                                                ",
"                                                                                ",
"                                                                                ",
"                                                                                ",
"                                                                                ",
"                                                                                ",
"                      . . . . . .     . .                                       ",
"                      . $ % % % #   % % . .                                     ",
"                      . 6 d z d 8 o 6 s # . . X .                               ",
"                      . o 3 f x d , a z a q q , % .                             ",
"                    X # # 3 f x f d d x x x x d , .                             ",
"                  . # 9 d z x x z z z x x x z z 8 .                             ",
"                . % 8 d x x x x z d f x z z z x a , o                           ",
"                . 5 f z x f f f d 9 a d z z x z l p # .                         ",
"                X q x z x f a a a a a s z x z z x d $ .                         ",
"                . q x x x f p N E E E E ] B d z x g $ .                         ",
"                X q x z l l c [ %.%.#.%.%.] x l z l $ .                         ",
"                X q x z s c  .$.#.#.#.#.#.$.| z s g $ .                         ",
"                . 5 l x V Z V +.7.7.7.2.Z [ o.z 5 2 #                           ",
"                . 1 p x ..[ 5 ~ U.U.T.3.y M ;.Z 3 .                             ",
"                  . > z >.=.5 ~ U.U.Y.3.y Y S.A.Y .                             ",
"                  . 2 E 6.Z.~ <.U.U.U.A.^ =.U.P.R .                             ",
"                  . 0 } 5.D.I.I.I.I.I.D.G.D.S.@.c .                             ",
"                      7 ] 9.I.U.U.U.U.U.Y.P.=.g %                               ",
"                      . k  .5.7.7.7.7.7.8.@.V $ .                               ",
"                      . , c ..$.;.;.;.#.$.D q X .                               ",
"                      . > s B &.B.n.n.-.Q x 8 X .                               ",
"                      . , s x _ B.H.J.B.M d q . .                               ",
"                      $ a x z _ N.K.L.V.C x z ; @                               ",
"                    u / <.X.n ) x.c.v.k.m F <.,.P .                             ",
"                  . i D.R.Z.U w.g.i.a.i.( &.T.R.! .                             ",
"                  . i Z.U.C.z.f.i.0.t.f.s.N.G.G.R .                             ",
"                    : b _ c.h.a.q.r J p.g.h.l.L t +                             ",
"                    O . J y.r.K G + e J w.u.K = .                               ",
"                    O . 4 h v 7 + & + - j j y @ . *                             ",
"                * * & O % 8 8 - . * O @ 8 8 , @ + * *                           ",
"                    *           * * *           *                               ",
"                    *                           *                               ",
"                                                                                ",
"                                                                                "
};
