/* XPM */
static char *player__2___1_1676645774[] = {
/* columns rows colors chars-per-pixel */
"40 40 156 2 ",
"   c None",
".  c #020101",
"X  c #090604",
"o  c #0F0905",
"O  c #00030A",
"+  c #0D0A0A",
"@  c #130B07",
"#  c #120D0A",
"$  c #180D09",
"%  c #1A0C03",
"&  c #16130F",
"*  c #1D120B",
"=  c #060912",
"-  c #0B0D15",
";  c #0C0E19",
":  c #0B121C",
">  c #23150C",
",  c #29170C",
"<  c #2A1A0F",
"1  c #221510",
"2  c #261A12",
"3  c #2A1C12",
"4  c #231F1A",
"5  c #331F12",
"6  c #2F2017",
"7  c #2C231C",
"8  c #352215",
"9  c #3C2515",
"0  c #35241B",
"q  c #3E2919",
"w  c #181F2E",
"e  c #332C24",
"r  c #3A2B23",
"t  c #3B352B",
"y  c #373237",
"u  c #37373C",
"i  c #402717",
"p  c #412817",
"a  c #442B19",
"s  c #4A2F1C",
"d  c #4A2D16",
"f  c #4C311D",
"g  c #51351F",
"h  c #59381E",
"j  c #462D22",
"k  c #453225",
"l  c #4C3320",
"z  c #4C3629",
"x  c #523621",
"c  c #563923",
"v  c #593B24",
"b  c #553D2D",
"n  c #5E3F2A",
"m  c #4D3C36",
"M  c #57443A",
"N  c #544236",
"B  c #62422B",
"V  c #694730",
"C  c #664937",
"Z  c #6C4932",
"A  c #6E4F3C",
"S  c #634734",
"D  c #714C33",
"F  c #734F38",
"G  c #79533C",
"H  c #7F583F",
"J  c #24355E",
"K  c #183262",
"L  c #15366B",
"P  c #293B64",
"I  c #2D4B7B",
"U  c #304C7F",
"Y  c #324C74",
"T  c #655245",
"R  c #785B47",
"E  c #665C5F",
"W  c #685D5F",
"Q  c #7B6857",
"!  c #776453",
"~  c #595864",
"^  c #405172",
"/  c #685E60",
"(  c #7B6B66",
")  c #805A3F",
"_  c #835D46",
"`  c #875F48",
"'  c #89624A",
"]  c #88684F",
"[  c #94694D",
"{  c #876F59",
"}  c #9B6E52",
"|  c #9E7155",
" . c #A27457",
".. c #A57659",
"X. c #A67A5E",
"o. c #AF7C5E",
"O. c #B17E5F",
"+. c #857762",
"@. c #8C7863",
"#. c #9E7E65",
"$. c #917B63",
"%. c #95826C",
"&. c #9E8A72",
"*. c #A8886D",
"=. c #AD8164",
"-. c #B48162",
";. c #BE8867",
":. c #B28769",
">. c #A68F74",
",. c #AE8E72",
"<. c #AB9277",
"1. c #A9967D",
"2. c #B39176",
"3. c #204881",
"4. c #344F80",
"5. c #3A5A8C",
"6. c #335689",
"7. c #2D5494",
"8. c #325E9F",
"9. c #2456A2",
"0. c #2762B5",
"q. c #2E65B3",
"w. c #3068B5",
"e. c #316ABB",
"r. c #747C97",
"t. c #7E7F90",
"y. c #757D98",
"u. c #797F98",
"i. c #627BA8",
"p. c #2969C1",
"a. c #827E87",
"s. c #70819F",
"d. c #7C829A",
"f. c #758DB4",
"g. c #7C95BC",
"h. c #888996",
"j. c #80859B",
"k. c #898A98",
"l. c #96969F",
"z. c #B29E83",
"x. c #B7A387",
"c. c #B6A48E",
"v. c #BCA589",
"b. c #BDA88C",
"n. c #B7A691",
"m. c #8088A2",
"M. c #9A99A0",
"N. c #9499AB",
"B. c #A6AAB7",
"V. c #C3A789",
"C. c #C2AC8E",
"Z. c #CAAE8F",
"A. c #C3AE90",
"S. c #C6B193",
"D. c #C8B293",
"F. c #D6C0A0",
/* pixels */
"                                                                                ",
"                                                                                ",
"                                                                                ",
"                                                                                ",
"                                                                                ",
"                      . X X X X X   X X . .                                     ",
"                      . 2 a q 8 > X 2 8 X . . .                                 ",
"                      . * a c c q * 9 f > * * * *                               ",
"                      . . * l v g p f x p s x c 8 X                             ",
"                    @ < 8 a c v c g c c g c v v f 8 @                           ",
"                  o > a c v v v c v c v v v v c v x 6 #                         ",
"                . , a c c c c v c c c c c c c v c c g 8 X                       ",
"                X , s v v c s x c c v c s a s g c v n 8 .                       ",
"                . 3 a g g s p f v c c x a s n V B g c q @ X                     ",
"                X < a a a p p f c c c x a Z  ...G s g f 8 @ .                   ",
"                . < a f a 9 9 f v c f g G } o.O.} H v s 9 @ .                   ",
"                . 3 s c s s c c x c c B _ | :.:.X.' j 8 9 @ .                   ",
"                . , s c c V [ Z a c H ' j R c.C.{ 5 o * 9 @ .                   ",
"                X < s s x D ..[ Z f ] #.0 T A.D.Q $ . X * o                     ",
"                . , 8 i s Z ..O.} S $.1.N ! A.S.@.r + . .                       ",
"                  X * 9 p n  .O.=.<.x.b.1.z.C.A.x.%.7 .                         ",
"                    o > 5 g F G ' 2.V.S.S.S.C.A.Z.,.e .                         ",
"                      . > 9 p 9 c [ 2.n.c.n.c.x.*.' 3 .                         ",
"                        X $ 9 9 a B ( h.h.h.a.T k 2                             ",
"                        X > 9 s l x / y.y.d.t.m % . .                           ",
"                      & 0 s p f c c / u.d.N.M.M > # # #                         ",
"                    e +.&.{ l f c c / j.N.B.M.M c R _ b X                       ",
"                  . t c.F.>.l d h c ~ i.f.g.s.m D -.;.F X                       ",
"                  . t z.b.$.z j b b ^ q.w.e.8.y B | X.C X                       ",
"                    4 t t u P I 5.5.7.9.0.p.9.w > 0 0 3                         ",
"                      . . ; P 4.6.3.L K I 5.Y : . . . .                         ",
"                      - . + 0 z k - O + e z k # . - - ;                         ",
"                    ; ; = + 2 0 3 + . + 1 5 6 # =     ;                         ",
"                      ; ;                       ; ; ;                           ",
"                        ;                           ;                           ",
"                                                                                ",
"                                                                                ",
"                                                                                ",
"                                                                                ",
"                                                                                "
};
