/* XPM */
static char *player__4___1_1676645992[] = {
/* columns rows colors chars-per-pixel */
"40 40 100 2 ",
"   c None",
".  c #020101",
"X  c #090604",
"o  c #0E0805",
"O  c #03050A",
"+  c #090708",
"@  c #0B0A0C",
"#  c #130C07",
"$  c #150E08",
"%  c #190F09",
"&  c #1C130B",
"*  c #060910",
"=  c #0B0C15",
"-  c #070E1E",
";  c #0B0E19",
":  c #110F17",
">  c #131117",
",  c #1E1611",
"<  c #151318",
"1  c #25160D",
"2  c #27180E",
"3  c #2A190F",
"4  c #261B14",
"5  c #2B1E14",
"6  c #321E12",
"7  c #2F2013",
"8  c #2E2119",
"9  c #342215",
"0  c #3D2516",
"q  c #32231A",
"w  c #392719",
"e  c #3F2A19",
"r  c #09142B",
"t  c #111727",
"y  c #1C1B23",
"u  c #0F1A32",
"i  c #1E2338",
"p  c #3D2B21",
"a  c #2D2C3B",
"s  c #402717",
"d  c #412817",
"f  c #432A19",
"g  c #492E1C",
"h  c #4D321E",
"j  c #52351E",
"k  c #57381F",
"l  c #58391F",
"z  c #432E21",
"x  c #463327",
"c  c #4C3222",
"v  c #533621",
"b  c #573A23",
"n  c #593B23",
"m  c #533C2C",
"M  c #5C3C29",
"N  c #5A4031",
"B  c #61422B",
"V  c #654632",
"C  c #6A4732",
"Z  c #664836",
"A  c #6C4D3A",
"S  c #734F38",
"D  c #755137",
"F  c #75513A",
"G  c #7C563D",
"H  c #0E2041",
"J  c #17294F",
"K  c #363341",
"L  c #15356E",
"P  c #183771",
"I  c #1D3C78",
"U  c #293F6D",
"Y  c #364266",
"T  c #2E497A",
"R  c #324672",
"E  c #344C7A",
"W  c #605256",
"Q  c #444C6F",
"!  c #685B66",
"~  c #855D42",
"^  c #8C6347",
"/  c #8B634A",
"(  c #90674C",
")  c #956A4F",
"_  c #996C51",
"`  c #9F7358",
"'  c #A67659",
"]  c #AC7B5D",
"[  c #947265",
"{  c #1C4285",
"}  c #1F4489",
"|  c #1C4998",
" . c #23468A",
".. c #375484",
"X. c #385584",
"o. c #3A5989",
"O. c #1E52A4",
"+. c #2354A1",
"@. c #255BAD",
"#. c #275FB2",
/* pixels */
"                                                                                ",
"                                                                                ",
"                                                                                ",
"                                                                                ",
"                                                                                ",
"                              . . X     X X X X X .                             ",
"                          . . . o 9 1 X 2 9 f f 2 .                             ",
"                        # % & & 5 v 9 & d v b f & .                             ",
"                      . 2 f j b v b h f v n c & X .                             ",
"                      . 9 b n n n b v v b n v f 9 1 X                           ",
"                    X % e n b b b n b b b b b n b f 1 o                         ",
"                  . # 9 c n b b b b b n b b n b b v f 1 .                       ",
"                  . # 0 v b b n b b n b b b n b n b g 2 .                       ",
"                  . # 0 j n b b n b b b b b b b n v g 2 X                       ",
"                  . # 0 j b b b b b n b n b b n b v g 2 .                       ",
"                  . # 0 g h b b n n b b b b n n j g f 3 .                       ",
"                  . # 5 0 f j v v n n v b v v v g s f 2 .                       ",
"                      o 3 d f d g v n n b v f f f s s 2 .                       ",
"                      . 2 0 s s f g h g g f s 0 s 6 3 $                         ",
"                      . 9 v d d 0 0 e e s 0 s s g c % .                         ",
"                      X N ^ g 9 s s s s s 0 0 0 Z / 5 .                         ",
"                      X x Z D F C f 0 0 0 v S G S M 4                           ",
"                        . 8 ( ] ) M h c j G ' ' m +                             ",
"                        . & B ) ] _ ) ) ) ' ' G w .                             ",
"                        . $ h D ^ ^ ^ ^ ^ ^ ~ B 5 .                             ",
"                        . $ j n n n n n n n n n 9 .                             ",
"                        . $ c n v n b b b v b n 5 .                             ",
"                        q z h k l l l l l n v v h p ,                           ",
"                      X A ( x x m m m m m m m z A ( 8 .                         ",
"                      X S [ Y T o.o.E R X.o.X.U ! ` 8 .                         ",
"                      X m W  .O.#.@.{ L +.#.@.| Q A 4 .                         ",
"                      = X t I  . .{ H - P } {  .J @ @                           ",
"                      ; . @ a K a u - * r i K K y . O                           ",
"                    ; = O o 9 0 3 X O * . & 9 9 1 . * :                         ",
"                    ; ; = = < < < = = ; = : < > : ; ; ;                         ",
"                        ; ; ; ; ; ; ; ; ; ; ; ; ; ; ;                           ",
"                                                                                ",
"                                                                                ",
"                                                                                ",
"                                                                                "
};
