/* XPM */
static char *player__5___1___1_1676647761[] = {
/* columns rows colors chars-per-pixel */
"40 40 149 2 ",
"   c None",
".  c #010101",
"X  c #090604",
"o  c #0C0806",
"O  c #03060C",
"+  c #07080D",
"@  c #0F0F0D",
"#  c #130B07",
"$  c #130D09",
"%  c #190F09",
"&  c #1C120C",
"*  c #0A0C16",
"=  c #0C0E19",
"-  c #1C1412",
";  c #22160E",
":  c #27190F",
">  c #2A1A0F",
",  c #211611",
"<  c #241913",
"1  c #2D1C12",
"2  c #2F1F19",
"3  c #311E12",
"4  c #2C221B",
"5  c #362215",
"6  c #3D2516",
"7  c #34241B",
"8  c #3D2719",
"9  c #3D2818",
"0  c #141F39",
"q  c #322D25",
"w  c #3D362D",
"e  c #402717",
"r  c #432814",
"t  c #442B19",
"y  c #492F1C",
"u  c #4D321E",
"i  c #51351E",
"p  c #59371B",
"a  c #57381F",
"s  c #412D22",
"d  c #463020",
"f  c #4F3322",
"g  c #46332A",
"h  c #4F392B",
"j  c #533621",
"k  c #563A23",
"l  c #593B24",
"z  c #523B2B",
"x  c #5D3F2A",
"c  c #4F3E33",
"v  c #5B4435",
"b  c #63432D",
"n  c #604433",
"m  c #6A4736",
"M  c #6C4A34",
"N  c #724D37",
"B  c #69513D",
"V  c #7A543C",
"C  c #2F384F",
"Z  c #21324D",
"A  c #143062",
"S  c #1F3F6E",
"D  c #223D6D",
"F  c #1A4179",
"G  c #2C4372",
"H  c #334970",
"J  c #4D4444",
"K  c #624F41",
"L  c #605547",
"P  c #6E5342",
"I  c #66594A",
"U  c #6E5A49",
"Y  c #765440",
"T  c #7C5840",
"R  c #76604D",
"E  c #7A614A",
"W  c #776A58",
"Q  c #5E6171",
"!  c #6B6368",
"~  c #776C6C",
"^  c #7C7373",
"/  c #825B42",
"(  c #885F44",
")  c #896046",
"_  c #8C6248",
"`  c #91664B",
"'  c #97694C",
"]  c #826F5C",
"[  c #956B51",
"{  c #9A6D51",
"}  c #9B7056",
"|  c #9E795E",
" . c #A67659",
".. c #AB7A5D",
"X. c #B17E5F",
"o. c #A57C60",
"O. c #AA7F63",
"+. c #9E876E",
"@. c #95846D",
"#. c #9A8871",
"$. c #A78669",
"%. c #AC8669",
"&. c #B3886A",
"*. c #A38E76",
"=. c #AB967B",
"-. c #AF9A7F",
";. c #B1987D",
":. c #C08968",
">. c #2B5187",
",. c #365486",
"<. c #36598F",
"1. c #3B5A8B",
"2. c #25519A",
"3. c #355D9A",
"4. c #2459AB",
"5. c #2E67B7",
"6. c #2967BD",
"7. c #3168B6",
"8. c #3169B8",
"9. c #5C6B8C",
"0. c #727183",
"q. c #767E9A",
"w. c #837D84",
"e. c #7A819C",
"r. c #6B85B1",
"t. c #7991B7",
"y. c #7A92B8",
"u. c #888997",
"i. c #82889E",
"p. c #898A99",
"a. c #B39E84",
"s. c #BBA68A",
"d. c #BEAA8D",
"f. c #B5A28A",
"g. c #B7A690",
"h. c #B8A892",
"j. c #858CA4",
"k. c #8B90A5",
"l. c #9EA1AF",
"z. c #9DA2B2",
"x. c #A8ABB7",
"c. c #C09F81",
"v. c #C9A888",
"b. c #C3AB8C",
"n. c #C5AF90",
"m. c #C7B192",
"M. c #C9B394",
"N. c #CDB99A",
"B. c #D5BE9E",
/* pixels */
"                                                                                ",
"                                                                                ",
"                                                                                ",
"                                                                                ",
"                                                                                ",
"                                  . . X     X X X X . .                         ",
"                            . . . . ; 5 o # > 9 t 8 # .                         ",
"                          o & - & % 9 i ; 5 u l u 5 o .                         ",
"                        . & u k u e u k t u k l 5 o . .                         ",
"                      . 1 t k l l a j k i j k l u 7 5 & .                       ",
"                    o & t l k k k l k k k k k k l l u 5 $ X                     ",
"                  . & u k k k k k k l k k k k k k k k u 5 # .                   ",
"                  . % j l l k u t y u l k l k y u l l a 6 $ .                   ",
"                  X : j j l b b l e y l k k a t t u j y 6 $ .                   ",
"                X : t a y x { .._ f y l k k j t e t t t 5 # .                   ",
"                X : t u M ` ..X. .( b y k k k e 6 e y u 6 # .                   ",
"                X 1 6 5 m } %.&.O.[ N k k j j k j y j j 6 # .                   ",
"                X 1 3 o % v ;.n.+.g m ` b y j ( / k k f 6 # .                   ",
"                  % $ . X g a.N.#.2 P $.x k /  .( k f y 6 # .                   ",
"                  . . . < K a.M.*.c W a.B T ..X.( k t 6 3 # .                   ",
"                      X I a.s.n.s.=.a.b.-.%...X./ t e > o                       ",
"                      X R v.n.n.n.M.M.b.a.| V V b e > $ .                       ",
"                      X n  .;.f.g.g.h.a.O.N e e 6 3 # .                         ",
"                        - q x ~ u.u.p.w.P a e e > o                             ",
"                        . X 3 ! j.q.q.0.v y y t > $ .                           ",
"                      $ # % 8 ^ z.i.e.0.n a a t t u < @                         ",
"                    4 Y / N y ^ x.l.k.0.v k j t B +.@.L o                       ",
"                  . 7 ..&.' j Q y.y.r.9.v p p r E M.B.W o                       ",
"                  . 7 [  .( y H 8.8.7.3.J x h q U a.f.W +                       ",
"                    - 7 q 1 % F 6.6.4.2.<.<.,.G C w w q                         ",
"                      . . . . Z ,.,.D A F >.,.G 0 . . .                         ",
"                    = * * O . 7 z s - O O 4 z s , . O =                         ",
"                    =     * + < 7 1 $ O . - 7 1 - + * =                         ",
"                      = = =                         =                           ",
"                        =                           =                           ",
"                                                                                ",
"                                                                                ",
"                                                                                ",
"                                                                                ",
"                                                                                "
};
