/* XPM */
static char *result[] = {
/* columns rows colors chars-per-pixel */
"40 40 79 1 ",
"  c #010100",
". c #0D0B04",
"X c #1D1807",
"o c #3B320C",
"O c #3C3412",
"+ c #4A3E10",
"@ c #524512",
"# c #6E5D1B",
"$ c #6B5D26",
"% c #8A741A",
"& c #957D1E",
"* c #BB9600",
"= c #BE9801",
"- c #BD990B",
"; c #BD9A13",
": c #9B862E",
"> c #B49829",
", c #B49C3B",
"< c #B9A13E",
"1 c #C39C00",
"2 c #C89F00",
"3 c #CBA200",
"4 c #C8A109",
"5 c #CFA80C",
"6 c #D0A600",
"7 c #D5AA00",
"8 c #DAAE00",
"9 c #D5AC08",
"0 c #DDB100",
"q c #C5A110",
"w c #C4A21C",
"e c #D1AD1D",
"r c #E3B600",
"t c #E6B800",
"y c #ECBD00",
"u c #C09F20",
"i c #C4A424",
"p c #C3A62F",
"a c #D1AD21",
"s c #D3B439",
"d c #E4BE28",
"f c #F4C300",
"g c #F9C700",
"h c #FECB03",
"j c #FFCE0C",
"k c #EAC012",
"l c #FFCF10",
"z c #FFD014",
"x c #FFD21C",
"c c #ECC62D",
"v c #F4CC2D",
"b c #FFD324",
"n c #FFD52B",
"m c #FFD633",
"M c #FFD933",
"N c #FFD738",
"B c #FFD83C",
"V c #C5AC47",
"C c #CEB141",
"Z c #C9B048",
"A c #CFB759",
"S c #D3BE69",
"D c #E9C948",
"F c #FFDA44",
"G c #FFDB4B",
"H c #F4D557",
"J c #FFDD53",
"K c #F7D85C",
"L c #FFDF5C",
"P c #FFE04E",
"I c #FFE056",
"U c #FFE25B",
"Y c #FFDF61",
"T c #FFE064",
"R c #FFE26B",
"E c #FFE473",
"W c #FFE579",
"Q c #FFE88C",
"! c None",
/* pixels */
"!!!!!!!!!!!!!!!!!!!!!!!!!!!!!!!!!!!!!!!!",
"!!!!!!!!!!!!!!!!QYGmmnnmFL!!!!!!!!!!!!!!",
"!!!!!!!!!!!!!!JnbnnnnbbbxxzxG!!!!!!!!!!!",
"!!!!!!!!!!!!FnnnmmnmmnnnnbxxllN!!!!!!!!!",
"!!!!!!!!!!TnnnmmmBBmNNMMnnbxxljjT!!!!!!!",
"!!!!!!!!!FbnmmBBBBBFFBBBmMnbbxzjhm!!!!!!",
"!!!!!!!!mbnmmBBFGGGGFFFBBmnnbxxjhhb!!!!!",
"!!!!!!!mbnnmBFFGGGJGJGGs#@&vnbxzljg!!!!!",
"!!!!!!FbbnmBFFGJJLLLJIDO   %nbxxlhhg!!!!",
"!!!!!RxbnmNBFGJJLLLUUU<    ovnxxzjhhf!!!",
"!!!!!xbbnmBFGJJLLTRTTTV.   +mnbxzlh!!!!!",
"!!!!GxxbmmBFGJLTRRRERTK$  X>mnbxzl!!!!!!",
"!!!!zxbbmmBFJJLTREEERRTH,:sBNnnx!!!!!!!!",
"!!!LjxbnnBFFGLLRREWWERTLIPGBNnb!!!!!!!!!",
"!!!bzxbbmmFGGLUTREWWERYLJGFBm!!!!!!!!!!!",
"!!!jlzxnnBBFGJLYRREERTTLJGFF!!!!!!!!!!!!",
"!!!jlzxnnmBFGJLLTRRRRYLJGG!!!!!!!!!!!!!!",
"!!!jlzxbnmBFFGJULTLTULLJJ!!!!!!!!!!!!!!!",
"!!!hjzxbbmmBFGPJJLLLLJJW!!!!!!!!!!m!!!!!",
"!!!hhlzxbnmmBFFPGJJJJL!!!!!!!!!!!Jmj!!!!",
"!!!hhlzxbbnmNBFFGGGGGT!!!!!!!!!!!nxy!!!!",
"!!!hhjlzxbnnMNNFFFFFFFG!!!!!!!!!!ft!!!!!",
"!!!ghhjzxxbnnnNNBBBBNBmmJ!!!!!!!!!!!!!!!",
"!!!fghhjzzxbnnnnmmmmmmmnnn!!!!!!!!!!!!!!",
"!!!ffghjlzzxxnnnnnnnnnnnbxxn!!!!!!!!!!!!",
"!!!kyfhhhjzzzxxbbbnnnbxxxxzzjF!!!!!!!!!!",
"!!!!tfgghhjzzzzxxxxxxxxzzljjhhl!!!!!!!!!",
"!!!!tyffhhhhjlzzzzzzzzzzjjhhhgfyc!!!!!!!",
"!!!!dttfffhhhhjllljllljhhhhggfytr0!!!!!!",
"!!!!!0rtyffghhhhhjhjhhhhhggffytr889e!!!!",
"!!!!!!0ryyyfgggghhhhhhgfgffytrr086311!!!",
"!!!!!!!800ttfffffgggffffffytr0876311i!!!",
"!!!!!!!9800rtttyyyfyyyyttrrr8866311;!!!!",
"!!!!!!!!97880rrrrrrtttrrr08776321=-!!!!!",
"!!!!!!!!!56778880000r8888766321==;!!!!!!",
"!!!!!!!!!!a3367777787776633311=*p!!!!!!!",
"!!!!!!!!!!!!433333633333211==*;S!!!!!!!!",
"!!!!!!!!!!!!!!q1111311111=**;A!!!!!!!!!!",
"!!!!!!!!!!!!!!!!Cw-==***-uZ!!!!!!!!!!!!!",
"!!!!!!!!!!!!!!!!!!!!!!!!!!!!!!!!!!!!!!!!"
};
