/* XPM */
static char *objects__2___2_1676650193[] = {
/* columns rows colors chars-per-pixel */
"40 40 96 2 ",
"   c None",
".  c #1D0F0E",
"X  c #1C150D",
"o  c #141B0D",
"O  c #1E1B0F",
"+  c #0D0E1A",
"@  c #140E14",
"#  c #0D1616",
"$  c #0A1A14",
"%  c #0B101A",
"&  c #151014",
"*  c #1D1111",
"=  c #1D1C12",
"-  c #1C1419",
";  c #21110D",
":  c #221312",
">  c #2B1712",
",  c #201F11",
"<  c #2D1B15",
"1  c #2B1E19",
"2  c #301E16",
"3  c #05260A",
"4  c #0B230D",
"5  c #072A0B",
"6  c #092C0D",
"7  c #14260F",
"8  c #1A210F",
"9  c #112D0F",
"0  c #0A320E",
"q  c #072010",
"w  c #0A2A11",
"e  c #102311",
"r  c #1E2613",
"t  c #142D11",
"y  c #1C2A13",
"u  c #0C3410",
"i  c #0D3B12",
"p  c #123611",
"a  c #113B13",
"s  c #1E3D17",
"d  c #252715",
"f  c #292616",
"g  c #252815",
"h  c #2C2817",
"j  c #2F211C",
"k  c #352117",
"l  c #39251B",
"z  c #3F2A1D",
"x  c #2C3319",
"c  c #36331C",
"v  c #3A311D",
"b  c #2F2220",
"n  c #3B2A21",
"m  c #422C1E",
"M  c #442E20",
"N  c #463222",
"B  c #4C3424",
"V  c #523726",
"C  c #553827",
"Z  c #0F4216",
"A  c #124316",
"S  c #184517",
"D  c #1A4817",
"F  c #124618",
"G  c #144A19",
"H  c #1B4C19",
"J  c #1C541C",
"K  c #1E591F",
"L  c #23561D",
"P  c #245A1F",
"I  c #225D20",
"U  c #256423",
"Y  c #2B6423",
"T  c #276824",
"R  c #2B6C26",
"E  c #316B26",
"W  c #2E7027",
"Q  c #2E7128",
"!  c #32742A",
"~  c #38762A",
"^  c #357C2C",
"/  c #3A7E2D",
"(  c #37802E",
")  c #3B822F",
"_  c #3D8630",
"`  c #3F8831",
"'  c #418631",
"]  c #438C33",
"[  c #488F34",
"{  c #479135",
"}  c #4A9436",
"|  c #4C9738",
" . c #4E9A39",
".. c #519E3A",
"X. c #53A13B",
"o. c #58A73E",
/* pixels */
"                                                6 6 6 6                         ",
"                    5 3 3 3 3                 S / / / L                         ",
"                  p Y Y Y Y I 6               ~ o.o.o.' P 6   3                 ",
"                  p } o.o.o...L p   p S S   ] o.......o.' 6 a S p               ",
"                  p } X.X.X.X...P 5 S ^ ^ A Y X.X.X.....~ a ! ) P 0             ",
"            6 6 6 p } X.X.X...X...P D ....D Y X.X.X.X.E S !  ...] I 6           ",
"          6 J ! / / ' | X.X...X.X.[ ' X...~ / o.X.X.X.[ '  .X.X.X.! 6           ",
"      3 3 6 E ..o...[ ..X.X.X.X.X.X.o.....} } X...X...X.X.X.X.X. .! 6           ",
"    S H D 6 ) o...X.X.X.X.X...X.o...o.........o.X.X.X.X...X.X. ./ J 5           ",
"  3 Y o.} S ' X...X...X.X.X.X.X.........o.o.....X.X.X.X.X.X...] P p p           ",
"  3 Y o.X.}  .o.X...X.X...X.X.........o.........X.X.X.X...X.X... .} ] p         ",
"  3 Y ..' ......X.X.X.X.X.X.X.X...o.....o...o.....X.X...X.X.X...X.X...) S       ",
"    H ~ ] ....X.X.X.X.X...X.X.X.......o...........X.X.X.X.X...X.X.X.X.X.~ H     ",
"      D ..o...o...X.X.X.X.X.X.X.o.......o...o...X.X.X...X.X..... .o.X.X.o.Y 3   ",
"    6 L .... ...X.X.X.X.X.X.X.....o...o.o.......X.X.X.X.X.X...' [  ...X.o.Y 3   ",
"  5 H ) ..o.` ] X.X.X.....X.X.X...........X.X.o...X.X.X...X.X.X.] ' ....o.Y 3   ",
"  3 U ..X.X._ ^ ] X.X.X.X...X.X.o...o...X.X.X.X. .`  .o...X.X.o.^ J U ) ] L 3   ",
"5 G ^ o.X.{ ] ] { X...X.X.X.X.X...........X.X.X.X.] ! / | X.X.{ / W R H J S     ",
"6 U ` | _ R { o.X.X.X.X.X.X.X.......o...X.X.X.X.X.X.Q I Q ` } ( ] o. .L 6       ",
"6 P ! T G H ' X.X.X.....X...X.X.o.o.....X.X...X.X.X.X.^ G J ! ^ { X.X. .H 5     ",
"6 0 a G J ]  ...X. .)  .X.X.X.X.....X.X...X...X...X.X. .] Q ^ { ..X. .) J u 6   ",
"  5 5 u H | o.X.X...^ } X.X.X.X.] } X.X.X.X.X.X...` | o...| ^ _ ` _ ` ^ Q D 3   ",
"  5 p K T  .X.o. .{ [  .X.X.X.X.} ' } X.X.X.X.X...] ` | o...^ ^ R I U ! ( J 3   ",
"  a T ` ` { } | ] (  .X. .| X.o.o.' _ X.X...X.X...o._ _ | { ` ` R G F T Q H 5   ",
"6 I [ X. .) / ^ ^ ^ | X.{ _  . . .` _ X.X.X.X.X.X. ._ ^ ^ (  .X.{ R G F F i 5   ",
"6 i ! X.X... .] ^ ^ ( | X.{ ( ( ) ^ ` X.X.X.X.X. ._ ^ ^ ^ (  .X.X.{ Q G Z u 6   ",
"  5 P } X.o.o. .] ^ { X.X...{ ( ^ ` { `  .X.{ _ ` ^ I Q | } ` | o.| Q i 0 7 X   ",
"  o p T ' ! } o.| _  .X.X.X...( ` |  .] ]  .| / I I I ( o.X.{  . .` ! Z 5 7 > ; ",
"  X 9 J Q K ! { { (  .X.X.X.{ Q { o.X. .'  .o.] P Z T { { ' .. .` ! R F 0 g 2 ; ",
"; 7 J ^ ^ ^ J I ^ ( {  ...{ Q G ) X.X.X.....X.X.] i I ! T K { _ Q T G Z 0 r 2 ; ",
"; 4 J ( ^ ! A J ^ ! J Q ) Q G F R { X. .) } o.| ! u w Z K ! ^ K F G Z F 0 y < ; ",
"; 4 J ( ^ K u a J K T ! ^ R Z Z R ) ` ` ^ U Q ` ! F 5 u K ^ ^ F i F F Z u e - @ ",
"; , s J I F 0 6 i G ! ( ^ Q U F J W ^ ^ ^ J G U I F 0 0 A I U i 6 i u i w $     ",
"; > r w i i p 4 0 G T T Q ( ! G F J T R R H Z Z Z Z t 7 p i i 6 4 4 q 3 #   + + ",
"      $ 4 6 f g u A A w J ^ W G Z u u Z Z Z Z Z i 6 d l h t t = * + % % + +     ",
"    + % # X m V c 6 6 6 i G G Z u r d 6 0 0 5 0 6 X < m B N N l > * +   + +     ",
"      + + ; m C B z f f t 0 0 0 x N N z f = o $ $ & : k M V V B k X + + +       ",
"        + * j N B M l < = q 4 o M C V m 2 * @       & : 1 n n n 1 @             ",
"              b n j 1 : *   + * l N n 1 X @   + % +                             ",
"              + + % + + + + + + + + + + + + + + + + + + + + + +                 "
};
