/* XPM */
static char *Nouveau_projet1676465817[] = {
/* columns rows colors chars-per-pixel */
"40 40 55 1 ",
"  c #26334C",
". c #2B364D",
"X c #273948",
"o c #2D3A4D",
"O c #313A4E",
"+ c #2F3651",
"@ c #2E3B51",
"# c #303752",
"$ c #333C54",
"% c #353E5A",
"& c #383F5E",
"* c #354156",
"= c #3A4257",
"- c #36425B",
"; c #3B445D",
": c #3F485E",
"> c #374461",
", c #3B4661",
"< c #3D4A64",
"1 c #3E4D6A",
"2 c #3D5071",
"3 c #41475E",
"4 c #42495F",
"5 c #404760",
"6 c #434B64",
"7 c #484F66",
"8 c #444E69",
"9 c #484F69",
"0 c #475166",
"q c #495166",
"w c #45516B",
"e c #4B536C",
"r c #4F586C",
"t c #50576E",
"y c #51596F",
"u c #425471",
"i c #4C5671",
"p c #4D5974",
"a c #4F5C78",
"s c #505773",
"d c #535B73",
"f c #585F77",
"g c #545F79",
"h c #4F627B",
"j c #546176",
"k c #596175",
"l c #55627C",
"z c #5B637C",
"x c #60677F",
"c c #5D6780",
"v c #5D6A82",
"b c #636D83",
"n c #657185",
"m c #687087",
"M c #6B7689",
/* pixels */
";e8&&69ts4=9695;77543tyyke77y44tsss659s&",
"dzbbs6sfxsegs99,,,9qeggppylkkpkxbbbfcis9",
"dgsdf969986i,,;-<16eqi886ppw89fgw85,6,89",
"e6665&&&<;;6;,<9w>;7<8<<56<<8698,&&&,885",
"%%%#####@+#$+@..##$;$;*;%%&&&%$##%%%%%%#",
"4,565;69w<;5w7$;ddpr74363359ty95&,&&6679",
"d9<<8gggiew85a4rgae<6ykzqtiggps6&uses9sg",
"&%&,wii8888ww90e<6>:66ww47e6,,&&&e9896p6",
"%%>,66<<66<,<5:;-*&;>,<6=4;*%%@%,,<696>;",
"..@@$#$$@@##.#O.+...@oo*OO$.    .@$o@oo.",
"0gzzsqeee5%epsepee777srpq0:-5=6d77erskjq",
"jljlisclzesxlgjjljpfazzppap8wqjps8wpaesq",
"puw2w<<<99dgzglpiigfew6w9<<<6qp<1>;%,,16",
"0<,;;>;;<7ee88868e<9::><>,;;<57>---;>&;7",
"O*$$$;--%;;=;=%=;=-%$$@$$$$@$O$#oO$@@$$$",
"erjk6=37qesfssqtydddreee66yyyyq600:qpjke",
"vbml6di8igvvvnspevbvlvvlpdlga9egpa7shjap",
"ap6w6sp7<,186wdeiu1upp1pee6;;,1,>86w818p",
"<<<1<9611>,>-<ew<>,,>,10e6--->&%-6<,<><<",
"%%$$$;%$%%$$$$O$@%%@@*$**$o$*X..o$o@###-",
"5e75&qfyp7=70erq<;0;:tq46:*;<*=4q96qe7;=",
"fzagp6edee9pplwpgewqyzggrpre000w9,eeewq5",
"sw,>>>&8tq99ep<-<ew7e76w<,1e000;,81,;-57",
"e6>;%%&;9e5>----->,<3;>,,-->,,:->,-*%%55",
"=-$#OO$$*=$$@@$$$O$O.@oo*X@@@oo$@$@o@*%O",
"eye7;;qyrqykkj66r6;=0rre:-ee00450d:ejde4",
"qegleep5,1wilgsedjlp61wh00ghjgrgzzsrlzcd",
"y7,7ew876,--;6qee<<8<<<ew6w,2<-<w56q79sb",
"5;:;47;;>,----46e<----,1555<,<<<-,:5:::4",
"@$$$$$$$ooo.XO$*=*****-;=;;$$$**$*@*$$oO",
";:55;;457;5skdqekzrq5eyeeeq:4;:w6q07weq$",
"668<6ieq96qflrqkdsszrg0wflge:77wqsupsqw:",
";5<,,<;;<76e5-<7:,97e6*wew;::66781-,0><3",
"q<-----,656:*;;*-;;,7,;:;;--;5<6>--<,;,;",
"*$@ooXXo@OOo.XXooO##$$$#@ooo@$O@o@*oo$$#",
"derd747<rdyqq7;;qeq95;qe:6edrq69sr74yzzg",
"flgbseszMnbcdsrpse9isi67qfgggglegzefblcv",
"pppa9espww1ulzseee996<6,6e6<,,11>ewep22a",
"8819966,>>>,8sk7655;&&-;,q<->-->->7<1>,<",
"#-%;%$%%*-;-%#;$%%$$##$$$=;%%%*---;;;%%%"
};
